<?xml version="1.0" standalone="no"?>
<!DOCTYPE svg PUBLIC "-//W3C//DTD SVG 20010904//EN"
 "http://www.w3.org/TR/2001/REC-SVG-20010904/DTD/svg10.dtd">
<svg version="1.0" xmlns="http://www.w3.org/2000/svg"
 width="1601.000000pt" height="1601.000000pt" viewBox="0 0 1601.000000 1601.000000"
 preserveAspectRatio="xMidYMid meet">
<metadata>
Created by potrace 1.11, written by Peter Selinger 2001-2013
</metadata>
<g transform="translate(0.000000,1601.000000) scale(0.100000,-0.100000)"
fill="#000000" stroke="none">
<path d="M7505 15989 c-2198 -141 -4219 -1162 -5629 -2843 -1268 -1511 -1933
-3437 -1866 -5401 31 -883 186 -1692 477 -2485 539 -1469 1482 -2734 2738
-3673 595 -446 1280 -819 1990 -1085 1689 -632 3614 -664 5333 -87 1012 340
1932 872 2757 1593 274 240 688 674 940 987 916 1134 1509 2529 1694 3985 49
380 56 502 56 1020 0 491 -4 569 -41 900 -239 2129 -1324 4074 -3014 5401
-1282 1007 -2811 1585 -4465 1689 -186 12 -781 11 -970 -1z m-3828 -7614 l-7
-2155 1580 0 1580 0 0 -469 0 -469 -1072 -6 c-590 -4 -1536 -6 -2103 -4
l-1030 3 -3 2628 -2 2627 532 0 531 0 -6 -2155z m5241 228 c123 -1061 226
-1937 231 -1947 5 -13 16 20 35 110 62 284 169 643 279 935 44 117 371 866
716 1639 l60 135 526 0 527 0 299 -685 c165 -377 338 -770 383 -875 147 -336
254 -652 353 -1045 26 -105 50 -190 53 -190 3 0 38 278 78 618 196 1681 361
3094 367 3160 l7 72 519 0 519 0 -5 -22 c-2 -13 -21 -160 -40 -328 -35 -293
-493 -4098 -558 -4635 l-32 -260 -552 -3 -552 -2 -19 42 c-442 991 -1039 2352
-1097 2498 -78 196 -202 560 -225 658 -7 28 -17 52 -24 52 -7 0 -18 -24 -25
-52 -29 -115 -156 -483 -236 -683 -46 -115 -313 -727 -594 -1360 l-509 -1150
-553 0 -554 0 -312 2595 c-172 1427 -312 2607 -313 2623 l0 27 513 0 513 0
222 -1927z"/>
</g>
</svg>
